<?xml version="1.0" encoding="UTF-8"?>
<svg data-bbox="0.006 0 113.414 127.351" viewBox="0 0 113.39 127.34" xmlns="http://www.w3.org/2000/svg" data-type="color">
    <g>
        <path d="M60.19 102.91c-.7 2.19-1.27 4.44-1.81 6.57l-.16.63c-.16.65 1 1.91 2.65 2.82l.46.25a7.38 7.38 0 00.29-3.08 14.42 14.42 0 00-.42-1.39 16.41 16.41 0 01-.57-2c-.09-.39-.27-1.91-.44-3.8z" fill="#231f20" data-color="1"/>
        <path d="M6.46 86.27l.47.09-.38-.36c-1.9-1.76-2.57-4.78-3-7.5a6.29 6.29 0 01-.88-1.28C1.36 74.76 1 71 .9 69.06c-.82 3.6-2.49 13.47 3 16.32a10.37 10.37 0 002.56.89z" fill="#231f20" data-color="1"/>
        <path d="M41.46 85.73h-.09v.09A9 9 0 0041 87.1c-.09.55-.06.63.16.85a3.29 3.29 0 01.26.3 3.08 3.08 0 01.82 2.41 4.65 4.65 0 01-.81 1.92 2.12 2.12 0 00-.3 2l.08.44.13-.15c1.2-1.4 2.83-3.53 3.07-5.75s-2.19-3.12-2.95-3.39zm19.32 6.62l-.22.31c-2.93 4.3-4.35 10-5.61 14.94l-.16.63c-.43 1.69.89 3.18 2.1 4.15a3.22 3.22 0 01-.74-2.8l.15-.63c1.06-4.19 2.25-8.85 4.34-12.78a22.45 22.45 0 01.09-3.45zM44.34 74.53h-.18l2 2.11 3.58 3.69c2.92-.7 7.71-2.57 7-7.22-.73-4.93-4.74-9.69-8.15-13.29l-.54-.58.4.68c1.3 2.2 3.72 6.3 3.48 9.8-.1 3.72-5.35 4.61-7.59 4.81zM41 89h-.06a6.92 6.92 0 00-.14 1.73c0 .58.06 1.17.12 1.82v.25l.13-.2A2.79 2.79 0 0041 89zM68.27 0C41.33 0 23 19.59 23 47.31a51.24 51.24 0 00.52 7.28 14.08 14.08 0 014-2.06c-.05.13-.13.33-.2.49-.27.67-.28.7-.23.76h.1a17.28 17.28 0 014-.61h.14l-.06-.13c-.61-1.32-.18-7.12-.18-8.24.1-15.6 13.21-34.48 31.21-36C86.45 6.71 96 29.52 98 38.12c2.22 9.48 2.47 25.41-3.8 37.3a45 45 0 01-8 11.17 19.61 19.61 0 00-4.44 6.53c-.36.86-.72 1.75-1.06 2.61a50 50 0 01-2.29 5.18 10.29 10.29 0 01-1.7 2.06c-.38.4-.75.78-1 1.14a21.91 21.91 0 00-2.85 5c-.84 2.48.8 5.81 1.42 7.06.09.19.15.32.17.38.14.36 0 .58-.23.83a1.12 1.12 0 00-.3.74 4.56 4.56 0 00.62 1.66 3.6 3.6 0 01.6 2 2.46 2.46 0 01-1.3 2.26c-2.27.87-8 1.52-10.71 1.74-.77.06-2.65.14-4 .19a2.82 2.82 0 01-.07.31.81.81 0 00.14.75.82.82 0 00.7.32c1.33 0 3.7-.14 4.59-.22 2.72-.22 8.45-.86 10.72-1.73a2.47 2.47 0 001.3-2.26 3.57 3.57 0 00-.6-2 4.52 4.52 0 01-.62-1.66 1 1 0 01.3-.74c.19-.26.36-.48.23-.83 0-.06-.09-.2-.18-.38-.61-1.25-2.25-4.59-1.41-7.06a22 22 0 012.85-5c.29-.35.65-.73 1-1.13a11.07 11.07 0 001.7-2.07A52.11 52.11 0 0082 97.08c.35-.86.7-1.75 1.07-2.6a21.47 21.47 0 011.72-3.23c16.92-6.33 28.63-22.66 28.63-43.68C113.39 21 94.19 0 68.27 0zM42.44 81.35c-1-.4-2.29-.9-2.75-.53s-.85 2-1 2.85c0 .13 0 .25-.06.34-1 5 .29 10.86 3.77 17.28l.16-.08c-.09-.24-.18-.49-.26-.75.06.14.13.27.2.41l.48.92.17-.07c-.23-.62-.5-1.21-.75-1.79a18.45 18.45 0 01-1.18-3.16 32.59 32.59 0 01-.93-5.77c-.27-4.4.72-7.48 2.92-9.17l.14-.1-.17-.05zM60 118.73a.11.11 0 000-.13 10.31 10.31 0 01-1.66-1.2c-3.37 1.24-8.32 1.17-13.64-.17-.76-.2-1.53-.41-2.31-.66l-.91-.32c-.47-.18-1-.41-1.55-.67s-1.19-.56-1.86-.91q-2-1-4.41-2.5c-.55-.32-1.11-.67-1.69-1a4.76 4.76 0 01.52.1 4.21 4.21 0 00.78.12 6.09 6.09 0 00.74 0 10.66 10.66 0 002-.33h.19a19.77 19.77 0 003.6-1.53h.09l.12-.06.29-.15a8.67 8.67 0 012-.86 2.72 2.72 0 01.69-.09h.08a2.61 2.61 0 01.74.18 1.68 1.68 0 01.35.2.51.51 0 01.19.28.33.33 0 010 .17.5.5 0 01-.14.27.69.69 0 01-.13.11 3.21 3.21 0 01-.67.33h-.07a7.57 7.57 0 01-1.56.37c-.31 0-.63.1-.93.17a3.79 3.79 0 00-.86.3l-.25.11c-.1 0-.16.06-.18.12s0 .12.06.21l.1.2a.73.73 0 00.16.21 3 3 0 00.56.38l.29.17.18.1.23.14.37.23a1.56 1.56 0 001.18.17l.62-.14a8.49 8.49 0 001.75-.68 1.56 1.56 0 00.35-.24 2.68 2.68 0 00.86-2.77 3.29 3.29 0 00-.72-1.29 3.32 3.32 0 00-1-.75 6.3 6.3 0 00-3.44-.31 9.58 9.58 0 00-2.47.83l-.76.36a14.78 14.78 0 01-2.53 1c-.32.08-.65.15-1 .2a15.46 15.46 0 01-2 .18h-1.54a5.32 5.32 0 01-1.61 0 1.36 1.36 0 01-.33-.15l-.19-.11-.16-.1-.29-.22h-.07l-.34-.3c-.51-.46-1-1-1.25-1.25l-.07-.07-.07.08a9.33 9.33 0 01-2.92 2.76 5.76 5.76 0 01-.61.3 5 5 0 01-.68.26 7.94 7.94 0 00-3.09 1.84l-.35.34a7.82 7.82 0 00-1.31 1.45 2.34 2.34 0 00-.35 1.86c0 .16.09.32.13.48l.12.39c0 .14.06.27.08.41a5 5 0 010 .76 3 3 0 01-.29 1.26 3.24 3.24 0 01-.33.52 3.63 3.63 0 01-1.56 1 13.77 13.77 0 01-3.58.67c-.74.06-1.48.1-2.22.14H9c-.62 0-1.24 0-1.86.05H4.75c-.76 0-1.51-.07-2.25-.12l-.56.68a1 1 0 00-.22.54 1 1 0 00.9 1.1h.09a46.42 46.42 0 008.5.07 27.6 27.6 0 004.26-.59 7.35 7.35 0 002.16-.83 3.6 3.6 0 001.6-1.93 4.21 4.21 0 000-2.36c-.21-.82-.5-1.28-.37-1.86a3.54 3.54 0 01.94-1.61c.46-.49.94-1 1.44-1.47A7.16 7.16 0 0123 112a13.5 13.5 0 001.91-.86 9 9 0 002.4-2.15 17.45 17.45 0 001.66 1.42c.58.46 1.2.91 1.82 1.32 1.22.84 2.47 1.68 3.77 2.4a55 55 0 008 4 34 34 0 008.76 1.75 19.21 19.21 0 008.68-1.14zm-.2-3.93l-1.35-1.7a.4.4 0 00-.31-.14h-.44c.31.21.58.36.74.45a3.19 3.19 0 01-.4.15l-.39.11h-.11l-.51.1a5.16 5.16 0 01-.58.06h-.16a5 5 0 01-.68 0h-.16v.14c.14.26.29.49.44.72l.1.15a8.73 8.73 0 001 1.15l.09.08a11 11 0 001.31 1 1 1 0 000-1.19l-.21-.26h.15a4.28 4.28 0 001.5-.82z" fill="#231f20" data-color="1"/>
    </g>
</svg>
