<?xml version="1.0" encoding="UTF-8"?>
<svg data-bbox="0 0 102.192 58.04" viewBox="0 0 102.19 58.04" xmlns="http://www.w3.org/2000/svg" data-type="color">
    <g>
        <g>
            <path d="M0 0h23.08c16.85 0 28 11.12 28 28.31C51.05 45.24 40.27 58 22.49 58H0zm12.55 47.93H22c11.12 0 16.09-8.34 16.09-19.62 0-9.52-4.64-18.2-16-18.2h-9.54z" fill="#343333" data-color="1"/>
            <path d="M55.77 0h25.36C95.2 0 100.5 7.25 100.5 14.83c0 6.57-3.45 10.78-7.41 12.55a13.94 13.94 0 019.1 13.31c0 9.94-7.84 17.35-20.14 17.35H55.77zM79.7 22.91c6 0 8.42-2.69 8.42-6.82s-3.2-6.4-8-6.4H68.07v13.22zM68.07 48.36h11.37c6.83 0 9.86-2.87 9.86-8.09 0-4.72-3-7.67-9.94-7.67H68.07z" fill="#2cace3" data-color="2"/>
        </g>
    </g>
</svg>
