<?xml version="1.0" encoding="UTF-8"?>
<svg data-bbox="0 0 76.42 98.34" viewBox="0 0 76.42 98.34" xmlns="http://www.w3.org/2000/svg" data-type="color">
    <g>
        <g>
            <g>
                <path fill="#231f20" d="M76.42 0v98.34H0V0h76.42z" data-color="1"/>
                <path d="M28.45 84.63a1.27 1.27 0 101.29-1.25 1.25 1.25 0 00-1.26 1.24zM26 81h7.19a.54.54 0 01.59.46v6.71a.54.54 0 01-.59.47H26a.54.54 0 01-.59-.47v-6.71A.53.53 0 0126 81z" fill="#ffffff" data-color="2"/>
                <path d="M18.17 84.63a1.27 1.27 0 101.29-1.25 1.25 1.25 0 00-1.27 1.25zM15.7 81h7.19a.54.54 0 01.59.46v6.71a.54.54 0 01-.59.47H15.7a.54.54 0 01-.59-.47v-6.71a.54.54 0 01.59-.46z" fill="#ffffff" data-color="2"/>
                <path d="M9 83.62a1.25 1.25 0 101.26 1.25A1.25 1.25 0 009 83.62zM13 89c0 2.79-2.9 4.81-4.67 5a10.39 10.39 0 01-2.84.1.41.41 0 01-.42-.4H5v-2.27a.42.42 0 01.45-.43H6.6a3 3 0 002.65-1.24.55.55 0 00.16-.38.62.62 0 00-.61-.6.69.69 0 00-.39.14 2.57 2.57 0 01-2 .91h-1a.42.42 0 01-.41-.42v-8a.42.42 0 01.42-.41h7.1a.42.42 0 01.43.41V89z" fill="#ffffff" data-color="2"/>
                <path d="M49.09 85.88a.47.47 0 01-.47-.46v-4a.47.47 0 00-.46-.46H46.3a.47.47 0 00-.48.46v6.71a.48.48 0 00.48.47h10.38a.48.48 0 00.48-.47v-6.67a.47.47 0 00-.48-.46h-1.85a.47.47 0 00-.47.45v4a.47.47 0 01-.48.4h-.52a.48.48 0 01-.48-.46v-4a.47.47 0 00-.46-.46h-1.83a.47.47 0 00-.48.46v4a.47.47 0 01-.46.46z" fill="#ffffff" data-color="2"/>
                <path d="M41.16 84.75v-.24a1.28 1.28 0 00-1.27-1.13 1.25 1.25 0 000 2.5 1.27 1.27 0 001.27-1.13zm.47-7.41h1.82a.47.47 0 01.47.47v10.36a.47.47 0 01-.47.47H36a.48.48 0 01-.48-.47v-6.71A.47.47 0 0136 81h4.67a.49.49 0 00.47-.4v-2.79a.47.47 0 01.45-.47h.05z" fill="#ffffff" data-color="2"/>
                <path d="M59.45 77.34a.47.47 0 00-.47.47v2a.47.47 0 00.47.46h1.86a.47.47 0 00.47-.46v-2a.47.47 0 00-.47-.47h-1.86z" fill="#ffffff" data-color="2"/>
                <path d="M59.45 81a.47.47 0 00-.47.45v6.71a.47.47 0 00.47.47h1.86a.47.47 0 00.47-.47v-6.7a.47.47 0 00-.46-.46h-1.87z" fill="#ffffff" data-color="2"/>
                <path d="M64.16 77.34a.47.47 0 00-.47.47v10.36a.47.47 0 00.47.47H66a.48.48 0 00.48-.47V77.81a.48.48 0 00-.48-.47z" fill="#ffffff" data-color="2"/>
                <path d="M68.81 77.34a.48.48 0 00-.48.47v10.36a.48.48 0 00.48.47h1.82a.47.47 0 00.47-.47V77.81a.47.47 0 00-.47-.47h-1.82z" fill="#ffffff" data-color="2"/>
                <path d="M5.21 58.84h9A21.15 21.15 0 0035.6 37.93V5.13H5.21v37.12h3.42a12.75 12.75 0 009.89-4.66l4.42 2.65a17.64 17.64 0 01-14.26 7.13h-3.4l-.07 9.34v2.13z" fill="#ffffff" data-color="2"/>
                <path d="M71.21 5.13H40.8v32.72A26.3 26.3 0 0114.35 64H5.21v9.57h66V5.13z" fill="#00539e" data-color="3"/>
                <path d="M13.58 21.09a6.76 6.76 0 116.87 6.65h-.12a6.7 6.7 0 01-6.75-6.65z" fill="#231f20" data-color="1"/>
            </g>
        </g>
    </g>
</svg>
