<?xml version="1.0" encoding="UTF-8"?>
<svg data-bbox="49.23 140.81 1101.54 346.38" viewBox="0 0 1200 628" xmlns="http://www.w3.org/2000/svg" data-type="ugc">
    <g>
        <path d="M158 169.64l28.83-28.83v55H158zm170.38 0l-28.83-28.83v55h28.85z" fill-rule="evenodd" fill="#7b7b7b"/>
        <path d="M186.85 140.81h112.72v27.52H186.85z" fill="#5a5a5a"/>
        <path d="M405.73 486.82h-325a31.45 31.45 0 01-31.46-31.45V249.9l54.05-54.05h279.82l54.05 54.05v205.47a31.46 31.46 0 01-31.46 31.45z" fill="#e6e7e8" fill-rule="evenodd"/>
        <path d="M49.23 307.26V249.9l54.05-54.05h279.86l54.05 54.05v57.36z" fill="#d0d1d2" fill-rule="evenodd"/>
        <path d="M93.79 486.82V264a13.11 13.11 0 0113.11-13.1h272.62a13.1 13.1 0 0113.1 13.1v222.82z" fill="#458cf5" fill-rule="evenodd"/>
        <path d="M93.79 307.26h298.83v179.56H93.79z" fill="#ffffff"/>
        <path d="M303.5 486.82v-53.74l-26.21-26.21-17-47.18L272 329.54l66.85 66.85 11.79-49.81 41.94 41.94v98.3z" fill="#d2d3d4" fill-rule="evenodd"/>
        <path d="M113.45 328.23h99.61v111.41h-99.61zm0 136.31H241.9v22.28H113.45z" fill="#d2d3d4"/>
        <path d="M328.4 445v41.81h-55V445.6a64.89 64.89 0 01-1.4-117.5v61.73l27.53 17 28.83-17V328.1a64.9 64.9 0 010 116.91z" fill="#505050" fill-rule="evenodd"/>
        <path d="M124.59 265.32a11.14 11.14 0 11-11.14 11.14 11.14 11.14 0 0111.14-11.14zm32.77 0a11.14 11.14 0 11-11.14 11.14 11.14 11.14 0 0111.14-11.14z" fill="#e6e7e8" fill-rule="evenodd"/>
        <path d="M1104.29 392.78h-135.1c-32.66 0-51 22.88-51 47.21 0 22.46 15.52 47.2 51 47.2h135.1z" fill="#669df3"/>
        <path fill="#1a73e8" d="M1150.77 439.91c0 26.073-20.81 47.21-46.48 47.21-25.67 0-46.48-21.137-46.48-47.21s20.81-47.21 46.48-47.21c25.67 0 46.48 21.137 46.48 47.21z"/>
        <path d="M964.79 266.91h-135.1c-32.67 0-51 22.87-51 47.22 0 22.46 15.53 47.21 51 47.21h135.1z" fill="#669df3"/>
        <path fill="#1a73e8" d="M1011.27 314.13c0 26.073-20.81 47.21-46.48 47.21-25.67 0-46.48-21.137-46.48-47.21s20.81-47.21 46.48-47.21c25.67 0 46.48 21.137 46.48 47.21z"/>
        <path d="M1104.29 141.12h-135.1c-32.66 0-51 22.88-51 47.21 0 22.46 15.52 47.21 51 47.21h135.1z" fill="#669df3"/>
        <path fill="#1a73e8" d="M1150.77 188.33c0 26.073-20.81 47.21-46.48 47.21-25.67 0-46.48-21.137-46.48-47.21s20.81-47.21 46.48-47.21c25.67 0 46.48 21.137 46.48 47.21z"/>
        <path d="M682.2 328.2a15.11 15.11 0 013.58 10.15 21.08 21.08 0 01-4.93 13.58 16.15 16.15 0 01-13.28 6.12h-49L612 412.69a17.66 17.66 0 01-6.72 11.94 20.52 20.52 0 01-12.69 4.18 15.45 15.45 0 01-11.19-4.18c-2.89-2.79-4-6.76-3.44-11.94l6.57-54.64h-48.32q-6.88 0-10.45-4.33a15.61 15.61 0 01-3.59-10.3A20.59 20.59 0 01527.1 330q4.92-6 13.28-6h48.67l6.57-54.64a16.53 16.53 0 016.27-11.64 19.43 19.43 0 0112.24-4.18 17.11 17.11 0 0111.64 4.18q4.77 4.18 3.88 11.64L623.08 324h48.67q6.86 0 10.45 4.2z" fill="#669df3"/>
    </g>
</svg>
