<?xml version="1.0" encoding="UTF-8"?>
<svg data-bbox="28 60 1144 779.88" viewBox="0 0 1200 900" xmlns="http://www.w3.org/2000/svg" data-type="ugc">
    <g>
        <defs>
            <radialGradient gradientUnits="userSpaceOnUse" gradientTransform="matrix(2291.67 0 0 -2218.75 2481129.79 3900454.86)" r=".1" cy="1757.88" cx="-1082.43" id="0e53abe1-5889-4ad2-942b-da1b0b64a313">
                <stop stop-opacity=".98" stop-color="#423325" offset="0"/>
                <stop stop-color="#1c0a00" offset="1"/>
            </radialGradient>
        </defs>
        <path d="M194.7 523.11l-7.55 18.3h-12.57l30.93-71.62h16.81l1.35 71.62H211.5v-18.3zm16.59-10.64c-.06-13.55.13-26 .45-32.92h-.31c-2.18 6.78-6.92 18.91-12.41 32.92z" fill="#3c2d21"/>
        <path d="M283.53 466.22l-12.78 60c-1.42 6.48-2.48 12-3 15.23H255.6c.2-1.36.44-3.42.9-5.72-3.19 4.35-6.62 6.58-12.69 6.58-9.91 0-15.22-9.3-10.72-29.72 4.14-18.71 12.9-26.77 22.63-26.77 5.67 0 9 2.32 10.25 5.11l5.31-24.67zm-38.2 47.52c-2.74 13.2-.64 18.46 4.48 18.46 6.52 0 9.36-6.77 12.07-19.62 2.24-10.65 2.12-16.58-4.54-16.58-5.05 0-9.51 6-12.01 17.74z" fill="#3c2d21"/>
        <path d="M323.33 515.09c-2.85 14.25-9.7 27.18-24.78 27.18-14.26 0-19.6-10.74-15.83-29.19 3.38-16.93 12.63-27.3 24.54-27.3 15.8 0 19.38 12.82 16.07 29.31zm-28.52-.59c-2.52 12.44-.79 17.69 4.8 17.69 5.27 0 9.08-6.79 11.54-18 2.14-9.86 2.63-18.21-4.67-18.21-5.88.02-9.88 9.63-11.67 18.52z" fill="#3c2d21"/>
        <path d="M342.39 466.18h12.33L349.21 492a14.54 14.54 0 0112.31-6.18c10.84 0 15.28 9.68 11.11 28.54-3.79 17.16-10.55 27.94-22.2 27.94-7 0-9.62-3.9-10.54-6.47a56.79 56.79 0 01-1.55 5.62h-12c.83-3.68 2.14-9.87 3.35-15.41zm18 48.09c2.55-11.84 1.77-18.27-4.39-18.27-7 0-9.58 6.93-12 18.5-2.71 13.18-1.1 17.55 4.55 17.55s9.32-5.97 11.84-17.78z" fill="#3c2d21"/>
        <path d="M391.37 517.07a37.32 37.32 0 00-.72 6.78c0 5.2 1.69 8.43 5.8 8.43 4.78 0 6.71-3.14 8-6.4h11.95c-2.13 7.16-8.16 16.39-21 16.39-17.28 0-18-15.55-15.46-28.87 2.72-13.52 10.11-27.62 24.93-27.62 16.41 0 18.31 14.32 14.92 27.28l-1 4zm17.23-8.94a26.4 26.4 0 00.72-5.19c0-4.13-1.25-7.19-5.79-7.19-5.38 0-8.57 6-10.19 12.38z" fill="#3c2d21"/>
        <path d="M469.78 469.79l-15.26 71.62h-12.44l15.25-71.62z" fill="#3c2d21"/>
        <path d="M465.38 541.41l16-75.19h12.34l-16 75.19z" fill="#3c2d21"/>
        <path d="M488.67 541.41l16-75.19H517l-16 75.19z" fill="#3c2d21"/>
        <path d="M552.75 525.32c-1.65 8-2.81 13.28-3.13 16.09h-12c.09-1.62.48-4 .72-5.51-3.59 4.85-7.27 6.37-12.9 6.37-7.12 0-13.09-5.06-10.59-16.8l8.15-38.85h12.3l-7.74 36c-1.13 5.41-.73 9.28 4.38 9.28 4.69 0 7.83-3.23 9.76-12.22l7-33.07h12.26z" fill="#3c2d21"/>
        <path d="M572.7 525.23c0 3.51 1.06 7.8 6.38 7.8 3.35 0 5.71-1.38 6.37-4.49.89-4.2-.41-6.93-7.18-11.13-10.47-6.46-12.45-11.89-10.85-19.25 1.48-6.87 6.69-12.38 16.72-12.38 14 0 17.55 9.39 16.73 16.64h-11.31c0-4.16-1.09-7.42-5.47-7.42-2.13 0-4.31.79-5 3.88-.81 3.5.41 5.56 5.79 8.86 11.86 7.23 14 12.84 12.52 21.11-1.59 8.44-8.44 13.41-19 13.41-14.55 0-17.43-9.61-17.15-17z" fill="#3c2d21"/>
        <path d="M607.88 486.62h6.94l3-13.59H630l-3 13.59h8.05L633 496.5h-8.1l-6.81 31.06c-.67 3.23-.42 5.18 3.52 5.18a24 24 0 004.13-.36l-1.74 8.93a29.47 29.47 0 01-8.08.84c-8.6 0-12.51-3.33-10.45-13.22l7.24-32.43h-6.94z" fill="#3c2d21"/>
        <path d="M638.21 505.16c1.89-9 3.13-14.69 3.78-18.54h11.66c-.3 2.32-.54 4.09-1.52 8.91 3.55-6.81 8.83-9.73 16.08-9.74l-2.93 13.36c-9.15-.6-14.14 3.33-16.62 14.81l-5.82 27.45H630.5z" fill="#3c2d21"/>
        <path d="M701 528c-1 4.87-2.28 10.29-2.69 13.4h-11.86c.12-1 .36-3.17.71-4.75-2.74 3.72-6 5.61-11.87 5.61-10.94 0-13.51-9.37-11.8-17.94 2.13-10.47 9.41-14 18.84-15.63 3.5-.63 7.14-.94 11-1.26l.91-4c.9-4.28.87-8.66-5-8.66-4.1 0-5.76 2.73-6.8 6.72h-11.65c2-8.57 6.72-15.68 19.49-15.68 12.24 0 18.47 5.9 15.69 18.8zm-9.57-11.63a48.5 48.5 0 00-7.18 1c-4.37 1.07-7.65 3-8.6 7.34-.89 4.09.12 7.78 4.88 7.78 5.57 0 8.57-4.33 10.22-12.62z" fill="#3c2d21"/>
        <path d="M714.47 486.62h6.94l3-13.59h12.23l-3 13.59h8.05l-2.06 9.88h-8.14l-6.81 31.06c-.67 3.23-.41 5.18 3.52 5.18a24 24 0 004.13-.36l-1.78 8.93a29.43 29.43 0 01-8.08.84c-8.6 0-12.51-3.33-10.44-13.22l7.23-32.43h-6.94z" fill="#3c2d21"/>
        <path d="M781.45 515.09c-2.85 14.25-9.7 27.18-24.78 27.18-14.26 0-19.6-10.74-15.83-29.19 3.39-16.93 12.63-27.3 24.54-27.3 15.8 0 19.38 12.82 16.07 29.31zm-28.52-.59c-2.52 12.44-.79 17.69 4.8 17.69 5.27 0 9.08-6.79 11.54-18 2.14-9.86 2.63-18.21-4.67-18.21-5.88.02-9.88 9.63-11.67 18.52z" fill="#3c2d21"/>
        <path d="M792.22 505.16c1.89-9 3.14-14.69 3.78-18.54h11.67c-.31 2.32-.54 4.09-1.52 8.91 3.54-6.81 8.83-9.73 16.07-9.74l-2.93 13.36c-9.14-.6-14.14 3.33-16.62 14.81l-5.81 27.45h-12.34z" fill="#3c2d21"/>
        <path d="M859.34 480.62h-14.88l2.35-10.83h42.11l-2.35 10.83h-14.78l-12.91 60.79h-12.45z" fill="#3c2d21"/>
        <path d="M882.51 505.16c1.89-9 3.14-14.69 3.78-18.54H898c-.31 2.32-.54 4.09-1.52 8.91 3.54-6.81 8.83-9.73 16.07-9.74l-2.93 13.36c-9.14-.6-14.14 3.33-16.61 14.81l-5.82 27.45h-12.38z" fill="#3c2d21"/>
        <path d="M918.78 486.62h12.34l-11.69 54.79h-12.34zm4.4-20.4h12.34l-2.69 12.49h-12.34z" fill="#3c2d21"/>
        <path d="M970.54 525.85c-2.32 7-7.19 16.41-21.12 16.41-17.23 0-17.73-15.5-14.67-29.75 2.94-13.73 10.1-26.73 24-26.73 14.57 0 16.71 10.24 15.75 17.86h-12.08c.47-4.86-.51-7.87-4.75-7.87-5.32 0-8.8 8-10.86 18.12-1.78 8.86-3 18.38 3.84 18.38 4.35 0 6.58-3.53 7.74-6.42z" fill="#3c2d21"/>
        <path d="M993.74 509.69c4.45-5.9 11.58-15.34 17.65-23.07h14c-5.81 7-12 14.09-18 21.06l7.51 33.73h-12.82l-4.58-24.49c-1.72 2-5 5.32-6.68 7.23l-3.53 17.26h-12.35l16-75.19h12.34z" fill="#3c2d21"/>
        <path d="M300.8 786.5c-5.1 23.74-14.7 33.91-28 33.91-17.68 0-21.77-15.66-16.33-40.4 4.72-21.51 14.08-33.88 27.65-33.88 16.72 0 22.54 12.98 16.68 40.37zm-31.91-4.91c-3.49 16.23-3.7 28.22 4.72 28.22 6.58 0 10.62-6.48 14.71-24.66 3.69-16.3 4.76-28.33-4.52-28.33-7.13 0-11.56 9.18-14.91 24.77z" fill="#3c2d21"/>
        <path d="M311.31 781.34c2.43-11.3 3.08-14.88 3.48-17.1h12.08c-.12 1.23-.57 4-.92 5.81 2.65-3.93 6.68-6.66 13-6.66 8.57 0 13.48 5.68 10.83 18.3l-8 37.5h-12.37l7.75-36.59c1.23-5.71.11-8.89-4.64-8.89s-7.81 2.89-9.64 11.53l-7.22 34h-12.39z" fill="#3c2d21"/>
        <path d="M410.27 805.75c-1 4.88-2.28 10.32-2.69 13.44h-11.9c.12-1 .36-3.18.71-4.76-2.75 3.73-6 5.62-11.9 5.62-11 0-13.56-9.4-11.83-18 2.13-10.5 9.43-14 18.88-15.67 3.52-.64 7.17-.95 11-1.26l.91-4.06c.9-4.29.87-8.69-5-8.69-4.12 0-5.78 2.74-6.82 6.75H380c2-8.6 6.74-15.74 19.55-15.74 12.27 0 18.53 5.93 15.74 18.87zm-9.59-11.66a48.47 48.47 0 00-7.2 1c-4.39 1.08-7.68 3-8.64 7.37-.88 4.11.12 7.8 4.9 7.8 5.58 0 8.6-4.34 10.25-12.65z" fill="#3c2d21"/>
        <path d="M450.85 799.61c.08 4.64 1.66 10.69 8.59 10.69 4.75 0 7.88-2.73 8.82-7.67 1-5.33-.45-9.79-8.24-15.94-10.87-8.56-14.63-15-13-24.53 1.59-9.13 8-16 19.62-16 18.16 0 19.64 14.34 19.22 19.72H474c0-2.85-.6-9.61-7.65-9.61-4.34 0-6.76 2.6-7.45 6.67-.73 4.26.51 7.35 8.68 13.54 12.53 9.55 15.32 16.94 12.92 27.86-1.94 8.87-8.68 16.1-21 16.1-18.11 0-21.26-12.27-20.55-20.8z" fill="#3c2d21"/>
        <path d="M497.45 764.24h12.38l-11.72 55h-12.38zm4.42-20.46h12.38l-2.7 12.53h-12.38z" fill="#3c2d21"/>
        <path d="M517.13 781.34c2.43-11.3 3.08-14.88 3.48-17.1h12.08c-.12 1.23-.57 4-.93 5.81 2.66-3.93 6.69-6.66 13-6.66 8.57 0 13.49 5.68 10.84 18.3l-8 37.5h-12.37L543 782.6c1.23-5.71.11-8.89-4.64-8.89s-7.82 2.89-9.64 11.53l-7.22 34h-12.41z" fill="#3c2d21"/>
        <path d="M597.73 813.69c-3.24 15.31-8.13 26.19-24.73 26.19-16 0-17.74-11-16.77-16.8h11.55c-.2 2.89 1 7 6.29 7 7 0 9.25-5.61 11-13.64l.92-4.17c-2.78 4.14-7 6-12.08 6-11.56 0-15.12-10.86-11.78-27 3.79-18.36 11.78-27.9 22.3-27.9 6.74 0 9.45 3.34 10.43 6.27.45-1.83 1.22-4.61 1.55-5.42h12c-.81 3.33-2 8.89-3.68 16.55zm-23.24-22c-2.63 12.48-.15 16.49 4.92 16.49 5.29 0 8.64-4.62 11.34-16.73 2.9-12.73 2.17-17.82-4.5-17.82-4.91-.03-9.11 5.63-11.76 18.03z" fill="#3c2d21"/>
        <path d="M607.7 819.19l16-75.41h12.38l-16 75.41z" fill="#3c2d21"/>
        <path d="M646.85 794.77a36.92 36.92 0 00-.73 6.81c0 5.21 1.69 8.46 5.82 8.46 4.79 0 6.73-3.16 8-6.42h12c-2.14 7.18-8.19 16.43-21.11 16.43-17.34 0-18.08-15.6-15.5-28.95 2.72-13.56 10.13-27.71 25-27.71 16.46 0 18.36 14.37 15 27.36l-1 4zm17.28-9a26.6 26.6 0 00.72-5.2c0-4.15-1.25-7.21-5.81-7.21-5.4 0-8.6 6.06-10.22 12.41z" fill="#3c2d21"/>
        <path d="M748.11 786.5c-5.11 23.74-14.71 33.91-28 33.91-17.68 0-21.77-15.66-16.33-40.4 4.72-21.51 14.08-33.88 27.65-33.88 16.71 0 22.57 12.98 16.68 40.37zm-31.92-4.91c-3.49 16.23-3.7 28.22 4.73 28.22 6.58 0 10.61-6.48 14.7-24.66 3.69-16.3 4.76-28.33-4.52-28.33-7.1 0-11.56 9.18-14.91 24.77z" fill="#3c2d21"/>
        <path d="M767.14 743.74h12.36l-5.5 25.85a14.6 14.6 0 0112.34-6.2c10.87 0 15.33 9.72 11.14 28.63-3.79 17.21-10.57 28-22.26 28-7 0-9.64-3.91-10.57-6.49-.45 2-1.12 4.4-1.55 5.64H751c.83-3.69 2.15-9.9 3.36-15.45zM785.19 792c2.56-11.87 1.77-18.28-4.37-18.28-7.07 0-9.61 6.95-12 18.55-2.72 13.22-1.1 17.6 4.56 17.6s9.28-6.06 11.81-17.87z" fill="#3c2d21"/>
        <path d="M825.4 764.24l-11.83 55.84c-2.38 11.16-4.33 19.61-16.55 19.61a39 39 0 01-7.12-.61l2.26-10.3a31.66 31.66 0 003.56.31c3.14 0 3.95-2.05 4.87-6.52L813 764.24zm-10.63-7.93l2.59-12.53h12.38l-2.59 12.53z" fill="#3c2d21"/>
        <path d="M840.35 794.77a36.92 36.92 0 00-.73 6.81c0 5.21 1.7 8.46 5.82 8.46 4.79 0 6.74-3.16 8-6.42h12c-2.14 7.18-8.18 16.43-21.11 16.43-17.34 0-18.07-15.6-15.5-28.95 2.72-13.56 10.13-27.71 25-27.71 16.46 0 18.36 14.37 15 27.36l-1 4zm17.28-9a26.6 26.6 0 00.72-5.2c0-4.15-1.25-7.21-5.8-7.21-5.4 0-8.6 6.06-10.23 12.41z" fill="#3c2d21"/>
        <path d="M911.86 803.59c-2.34 7.06-7.22 16.45-21.19 16.45-17.28 0-17.78-15.54-14.72-29.84 3-13.77 10.14-26.81 24.08-26.81 14.61 0 16.76 10.28 15.79 17.91h-12.11c.46-4.86-.51-7.88-4.77-7.88-5.33 0-8.82 8.05-10.89 18.16-1.78 8.9-3 18.44 3.86 18.44 4.35 0 6.6-3.54 7.76-6.43z" fill="#3c2d21"/>
        <path d="M922.66 764.24h7l3-13.63h12.27l-3 13.63H950l-2.07 9.91h-8.16l-6.83 31.14c-.68 3.25-.42 5.2 3.53 5.2a23 23 0 004.13-.36l-1.78 9a29.26 29.26 0 01-8.1.85c-8.63 0-12.55-3.34-10.47-13.26l7.25-32.52h-7z" fill="#3c2d21"/>
        <path fill="#db6516" d="M1139.97 708H28l32.03-130H1172l-32.03 130z"/>
        <path d="M99.23 653.1c-.41 4.3.35 8.65 4.71 8.65 3.18 0 5-2 5.57-5.43.77-4.15-.45-7.28-6.36-12.08-8.49-6.87-11.79-11.93-10.21-20.7 1.43-7.87 6.77-14.09 17.59-14.09 14.92 0 17.71 10.5 16.63 17.72h-12.4c.35-3.18.08-7.67-4.28-7.67-2.69 0-4.25 1.64-4.75 4.72s.42 5.24 6.59 10.1c9.91 7.86 12.51 13.75 10.39 23.42-1.75 8.11-7.58 14.07-19 14.07-15.24 0-18.63-9.7-17.26-18.71z" fill="#ffffff"/>
        <path d="M132.28 623.85h5.45l2.4-11h13.1l-2.4 11H157l-2.19 10.31h-6.24l-5.14 23.48c-.57 2.74-.08 3.82 2.81 3.82a20.35 20.35 0 003-.26l-1.92 9.35a27.81 27.81 0 01-7.69.78c-8.48 0-11.7-3.13-9.83-12l5.59-25.2H130z" fill="#ffffff"/>
        <path d="M188.63 658.4c-.86 4.24-2.12 9.76-2.44 12.31h-12.81c.06-.84.27-2.62.5-3.87-2.59 3.19-5.46 4.61-10.08 4.61-8.79 0-11.3-7.39-9.59-15.48 2-9.32 7.8-12.19 17.1-13.78 2.5-.44 5.12-.67 7.92-.94l.81-3.56c.65-3.1.49-5.69-3-5.69-2.61 0-3.64 1.91-4.47 5.13H160c1.91-8.5 6.51-14 18.05-14 11.95 0 16.95 5.48 14.67 16.06zm-11.18-8.67a25.6 25.6 0 00-4.52.68c-2.94.86-4.91 2.31-5.62 5.51s.18 5.4 3.08 5.4c3.49 0 5.34-2.85 6.3-7.83z" fill="#ffffff"/>
        <path d="M230.19 655.9c-2 7-5.68 15.55-19.29 15.55-15.06 0-16.18-12.23-13.34-25.62s9.28-22.69 21.08-22.69c13.58 0 15.65 9.13 14.53 16.45h-12.8c.64-4.58.3-6.74-2.46-6.74-3.45 0-5.38 5.25-7.27 14.2s-2.73 14.59 1.63 14.59c2.85 0 4.14-2.47 5.13-5.74z" fill="#ffffff"/>
        <path d="M251.78 642.63c3.56-5.32 8.44-13 12.58-18.78H279c-4.63 6.13-9.66 12.19-14.24 17.88l5 29h-13.68l-2.41-18.89c-1.43 1.82-3.82 4.43-5 5.84L246 670.71h-13.24l13.38-63h13.26z" fill="#ffffff"/>
        <path d="M329.38 651.44c2-9.35 4.81-22 6.5-29.28h-.42c-4.3 12.54-12.34 34.73-17.95 48.55h-10.88C307.48 657 309 634.17 310 622h-.48c-1.22 7.07-3.48 19.46-5.7 29.88l-4 18.82h-11.95l12.79-60.16h19c-.1 10.53-1.14 27.6-2.06 36h.28c3-9 9.14-23.7 14.21-36h18.65L338 670.71h-12.75z" fill="#ffffff"/>
        <path d="M383.57 656c-1.61 7.7-2.62 12.66-2.86 14.69h-13c.09-1.43.36-3.12.54-4.37-3.15 3.95-6.21 5.08-10.84 5.08-6.58 0-11-4.57-8.88-14.44l7.05-33.13h13.25l-6.66 31.08c-.76 3.68-.46 6.08 2.76 6.08 3 0 4.8-2.18 6-7.65l6.22-29.51h13.25z" fill="#ffffff"/>
        <path d="M388.38 670.71l13.39-63h13.32l-13.39 63z" fill="#ffffff"/>
        <path d="M416.45 623.85h5.45l2.4-11h13.1l-2.4 11h6.19L439 634.16h-6.24l-5.14 23.48c-.57 2.74-.08 3.82 2.81 3.82a20.35 20.35 0 002.95-.26l-1.92 9.35a27.88 27.88 0 01-7.69.78c-8.48 0-11.71-3.13-9.83-12l5.59-25.2h-5.32z" fill="#ffffff"/>
        <path d="M447.18 623.85h13.31l-10 46.86H437.2zm3.46-16.14H464l-2.38 11h-13.36z" fill="#ffffff"/>
        <path d="M472.48 666.73l-4.27 20.1h-13.28l10.48-49.46c1.33-6.27 2.17-10.61 2.67-13.52h13a44 44 0 01-.65 4.57 11.93 11.93 0 0110.41-5.28c7.79 0 12.71 6.72 8.88 24.41-3.73 17.31-9.92 23.9-18.57 23.9-4.39 0-7.68-1.95-8.67-4.72zm14-19.65c2.14-10.63 1.07-13.46-2.3-13.46s-5.68 3.65-7.53 12.42c-2.55 11.9-2 15.18 2 15.18 3.35 0 5.68-3.5 7.85-14.14z" fill="#ffffff"/>
        <path d="M501.33 670.71l13.39-63H528l-13.39 63z" fill="#ffffff"/>
        <path d="M538.8 650.42a32.68 32.68 0 00-.84 6c0 3.35 1.08 5.27 3.48 5.27 2.89 0 4.22-1.81 5.26-5h13c-1.87 6.45-6.47 14.85-19 14.85-15.09 0-16.86-11.69-14.1-25.1 2.67-12.68 8.75-23.21 21.94-23.21 14.12 0 16.67 11 13.88 22.36l-1.17 4.92zm11.09-8.51a23 23 0 00.75-4.67c0-2.7-.69-4.45-3.48-4.45-3.27 0-5.17 3.62-6.51 9.12z" fill="#ffffff"/>
        <path d="M591.33 610.55h17.07c12.81 0 17.45 7.94 15.47 17.82-1.36 6.8-5.48 10-9.78 11.3 4.24 2.13 7.84 7 6.38 15.17-1.9 10.74-9.3 15.87-21.41 15.87h-20.52zm2.37 50.32h4.38c4.12 0 8-1.54 9-8.23.9-5.88-1-8.79-7-8.79h-2.76zm9-26.54c5.06 0 7.41-1.55 8.25-6.19s-.33-7.64-5.45-7.64h-3.26l-2.9 13.83z" fill="#ffffff"/>
        <path d="M623.55 670.71l13.39-63h13.32l-13.39 63z" fill="#ffffff"/>
        <path d="M661 650.42a32.85 32.85 0 00-.85 6c0 3.35 1.09 5.27 3.48 5.27 2.9 0 4.23-1.81 5.27-5h13c-1.88 6.45-6.48 14.85-19 14.85-15.09 0-16.87-11.69-14.1-25.1 2.67-12.68 8.75-23.21 21.94-23.21 14.11 0 16.67 11 13.88 22.36l-1.17 4.92zm11.09-8.51a23 23 0 00.75-4.67c0-2.7-.7-4.45-3.48-4.45-3.27 0-5.17 3.62-6.51 9.12z" fill="#ffffff"/>
        <path d="M692.38 638.56c2.08-9.65 2.62-12.62 3-14.71h13c-.08 1-.38 2.86-.65 4.26 2.2-3 5.46-5 10.6-5 7.64 0 11.24 5.31 9.17 15.16l-6.93 32.41h-13.24l6.6-31.27c.86-4 .22-6-2.78-6s-4.77 1.74-5.95 7.35l-6.33 29.87h-13.32z" fill="#ffffff"/>
        <path d="M776.73 607.71l-10.47 49.06c-1.37 6.39-2.33 11.36-2.77 13.94h-13c.11-1.16.35-3 .65-4.57-2.8 3.68-5.68 5.31-10.51 5.31-8.45 0-12.35-7.3-8.37-25.5 3.9-17.76 11.16-22.81 18.49-22.81 4.51 0 7.33 1.72 8.55 4.13l4.21-19.56zm-31.28 39.22c-2.38 11.38-1 14.31 2.13 14.31 4.07 0 5.7-4.35 7.93-14.79 2-9.34 2-13-2.16-13-3.11.04-5.82 3.64-7.9 13.48z" fill="#ffffff"/>
        <path d="M781.05 623.85h13.32l-10 46.86h-13.3zm3.46-16.14h13.32l-2.38 11h-13.31z" fill="#ffffff"/>
        <path d="M799 638.56c2.08-9.65 2.62-12.62 3-14.71h13c-.09 1-.38 2.86-.65 4.26 2.2-3 5.46-5 10.6-5 7.64 0 11.24 5.31 9.17 15.16l-6.93 32.41H814l6.6-31.27c.86-4 .22-6-2.77-6s-4.78 1.74-6 7.35l-6.33 29.87h-13.32z" fill="#ffffff"/>
        <path d="M870.83 665.81c-2.83 13.19-6.63 21.77-21.91 21.77-14.09 0-15.88-8.88-15.12-14.38h12.58c-.18 2 .46 4.78 3.71 4.78 4.3 0 5.7-3.45 7-9.15l.94-4.39c-2.48 3.45-5.91 4.81-10 4.81-9 0-12.48-7.75-9.22-22.91 3.24-15.33 9.13-23.2 18.16-23.2 5.21 0 7.63 2.33 8.7 4.86.33-1.27.92-3.43 1.22-4.15h13c-.71 2.85-1.82 8-3.27 14.7zm-18.75-19.17c-2.16 10.23-.57 12.5 2.55 12.5 3.35 0 5.18-2.56 7.43-12.86 2.16-9.61 2-12.84-2.25-12.84-3.06 0-5.6 3.31-7.73 13.2z" fill="#ffffff"/>
        <path d="M934.5 651.44c2-9.35 4.81-22 6.5-29.28h-.42c-4.3 12.54-12.34 34.73-18 48.55h-10.83c.85-13.75 2.37-36.54 3.39-48.7h-.48c-1.22 7.07-3.47 19.46-5.7 29.88l-4 18.82H893l12.79-60.16h19c-.1 10.53-1.13 27.6-2.06 36h.27c3-9 9.14-23.7 14.21-36h18.65l-12.8 60.16h-12.69z" fill="#ffffff"/>
        <path d="M991.14 648.15c-3 14.22-8.69 23.3-21.91 23.3-12.68 0-17.8-8-14.19-25.12 3.26-15.61 11-23.19 21.68-23.19 13.57 0 17.59 9.86 14.42 25.01zm-23-.48c-2.14 10.62-1.16 13.7 2.3 13.7 3.29 0 5.47-4.1 7.58-13.92 2-9.51 2.36-14.17-2.15-14.17-3.87 0-6.1 6.09-7.78 14.39z" fill="#ffffff"/>
        <path d="M1041 607.71l-10.47 49.06c-1.37 6.39-2.32 11.36-2.77 13.94h-13c.11-1.16.35-3 .65-4.57-2.79 3.68-5.68 5.31-10.51 5.31-8.45 0-12.35-7.3-8.37-25.5 3.91-17.76 11.16-22.81 18.5-22.81 4.51 0 7.33 1.72 8.55 4.13l4.21-19.56zm-31.28 39.22c-2.38 11.38-1 14.31 2.13 14.31 4.07 0 5.7-4.35 7.93-14.79 2-9.34 2-13-2.16-13-3.08.04-5.79 3.64-7.87 13.48z" fill="#ffffff"/>
        <path d="M1051.73 650.42a32 32 0 00-.85 6c0 3.35 1.09 5.27 3.48 5.27 2.9 0 4.22-1.81 5.26-5h13c-1.87 6.45-6.47 14.85-19 14.85-15.1 0-16.87-11.69-14.11-25.1 2.67-12.68 8.75-23.21 21.94-23.21 14.12 0 16.67 11 13.88 22.36l-1.17 4.92zm11.08-8.51a22.46 22.46 0 00.76-4.67c0-2.7-.7-4.45-3.48-4.45-3.28 0-5.18 3.62-6.52 9.12z" fill="#ffffff"/>
        <path d="M1089.72 656.37c-.1 2.65.41 5.71 3.9 5.71 2.14 0 3.6-.8 4.08-3 .65-3-.3-5-5.41-8-9.43-5.49-11.16-10-9.79-16.64 1.31-6.42 6-11.35 15.49-11.35 13.17 0 16.1 8.32 15.33 14.84h-11.71c.18-3.47-.58-5.78-3.5-5.78a3 3 0 00-3.33 2.63c-.53 2.42.4 3.87 5 6.57 9.9 5.87 12 10.4 10.64 18-1.3 7.08-6.64 12.08-17.41 12.08-13.52 0-15.87-8.62-15.41-15.08z" fill="#ffffff"/>
        <path d="M448.63 73.76h302.74v294.48H448.63z" fill="url(#0e53abe1-5889-4ad2-942b-da1b0b64a313)"/>
        <path d="M448.63 73.76h302.74v294.48H448.63zM434.87 382h330.26V60H434.87zm216.32-207.24c0-1.1.41-1.65 1.65-1.65h21.61c1.1 0 1.65.42 1.65 1.65v108.58c0 1.1-.28 1.65-1.65 1.65h-21.33c-1.38 0-1.79-.69-1.79-1.79V174.76zm-1.51-31.23c0-8.81 6.19-14 14-14 8.4 0 14 5.64 14 14 0 9.08-5.92 14-14.31 14-7.91.03-13.69-4.92-13.69-14zM587.75 220c-3.85-15.28-12.93-48.58-16.37-64.68h-.28c-2.89 16.1-10.18 43.35-16 64.68zm-38.25 22.33l-10.87 41.28c-.28 1.1-.69 1.38-2.07 1.38h-20.22c-1.38 0-1.66-.42-1.38-2.07L554 146.14c.69-2.48 1.1-4.68 1.38-11.42 0-1 .41-1.38 1.1-1.38h28.89c1 0 1.38.28 1.66 1.38l43.79 148.48c.28 1.1 0 1.79-1.1 1.79h-22.84c-1.1 0-1.79-.28-2.06-1.24l-11.29-41.42z" fill="#ff7f18"/>
    </g>
</svg>
